/* XPM */
static char *result[] = {
/* columns rows colors chars-per-pixel */
"66 66 2 1 ",
"  c #FFFFFF",
". c None",
/* pixels */
"..................................................................",
"..................................................................",
"..................................................................",
"..................................................................",
"..................................................................",
"..................................................................",
"..................................................................",
"..................................................................",
"..................................................................",
"..................................................................",
"..................................................................",
"..................................................................",
"............      ..............................      ............",
"............      ..............................      ............",
"............      ..............................      ............",
"............      ..............................      ............",
"............      ..............................      ............",
"............      ..............................      ............",
"............      ..............................      ............",
"............      ..............................      ............",
"............      ..............................      ............",
"............      ..............................      ............",
"............      ..............................      ............",
"............      ..............................      ............",
"............      ..............................      ............",
"............      ..............................      ............",
"............      ..............................      ............",
"............      ..............................      ............",
"............      ..............................      ............",
"............      ..............................      ............",
"............                                          ............",
"............                                          ............",
"............                                          ............",
"............                                          ............",
"............                                          ............",
"............                                          ............",
"................................................      ............",
"................................................      ............",
"................................................      ............",
"................................................      ............",
"................................................      ............",
"................................................      ............",
"................................................      ............",
"................................................      ............",
"................................................      ............",
"................................................      ............",
"................................................      ............",
"................................................      ............",
"................................................      ............",
"................................................      ............",
"................................................      ............",
"................................................      ............",
"................................................      ............",
"................................................      ............",
"..................................................................",
"..................................................................",
"..................................................................",
"..................................................................",
"..................................................................",
"..................................................................",
"..................................................................",
"..................................................................",
"..................................................................",
"..................................................................",
"..................................................................",
".................................................................."
};
