/* XPM */
static char *result[] = {
/* columns rows colors chars-per-pixel */
"66 66 2 1 ",
"  c #D200E9",
". c None",
/* pixels */
"..................................................................",
"..................................................................",
"..................................................................",
"..................................................................",
"..................................................................",
"..................................................................",
"..................................................................",
"..................................................................",
"..................................................................",
"..................................................................",
"..................................................................",
"..................................................................",
"............                                          ............",
"............                                          ............",
"............                                          ............",
"............                                          ............",
"............                                          ............",
"............                                          ............",
"............      ................................................",
"............      ................................................",
"............      ................................................",
"............      ................................................",
"............      ................................................",
"............      ................................................",
"............      ................................................",
"............      ................................................",
"............      ................................................",
"............      ................................................",
"............      ................................................",
"............      ................................................",
"............                                          ............",
"............                                          ............",
"............                                          ............",
"............                                          ............",
"............                                          ............",
"............                                          ............",
"............      ..............................      ............",
"............      ..............................      ............",
"............      ..............................      ............",
"............      ..............................      ............",
"............      ..............................      ............",
"............      ..............................      ............",
"............      ..............................      ............",
"............      ..............................      ............",
"............      ..............................      ............",
"............      ..............................      ............",
"............      ..............................      ............",
"............      ..............................      ............",
"............                                          ............",
"............                                          ............",
"............                                          ............",
"............                                          ............",
"............                                          ............",
"............                                          ............",
"..................................................................",
"..................................................................",
"..................................................................",
"..................................................................",
"..................................................................",
"..................................................................",
"..................................................................",
"..................................................................",
"..................................................................",
"..................................................................",
"..................................................................",
".................................................................."
};
