/* XPM */
static char *result[] = {
/* columns rows colors chars-per-pixel */
"66 66 2 1 ",
"  c pink",
". c None",
/* pixels */
"..................................................................",
"..................................................................",
"..................................................................",
"..................................................................",
"..................................................................",
"..................................................................",
"..................................................................",
"..................................................................",
"..................................................................",
"..................................................................",
"..................................................................",
"..................................................................",
"............                                          ............",
"............                                          ............",
"............                                          ............",
"............                                          ............",
"............                                          ............",
"............                                          ............",
"............      ..............................      ............",
"............      ..............................      ............",
"............      ..............................      ............",
"............      ..............................      ............",
"............      ..............................      ............",
"............      ..............................      ............",
"............      ..............................      ............",
"............      ..............................      ............",
"............      ..............................      ............",
"............      ..............................      ............",
"............      ..............................      ............",
"............      ..............................      ............",
"............                                          ............",
"............                                          ............",
"............                                          ............",
"............                                          ............",
"............                                          ............",
"............                                          ............",
"................................................      ............",
"................................................      ............",
"................................................      ............",
"................................................      ............",
"................................................      ............",
"................................................      ............",
"................................................      ............",
"................................................      ............",
"................................................      ............",
"................................................      ............",
"................................................      ............",
"................................................      ............",
"............                                          ............",
"............                                          ............",
"............                                          ............",
"............                                          ............",
"............                                          ............",
"............                                          ............",
"..................................................................",
"..................................................................",
"..................................................................",
"..................................................................",
"..................................................................",
"..................................................................",
"..................................................................",
"..................................................................",
"..................................................................",
"..................................................................",
"..................................................................",
".................................................................."
};
